<mxfile host="65bd71144e">
    <diagram id="KbsvcE-VWjinDajTUmbz" name="Page-1">
        <mxGraphModel dx="1502" dy="997" grid="1" gridSize="10" guides="1" tooltips="1" connect="1" arrows="1" fold="1" page="1" pageScale="1" pageWidth="850" pageHeight="1100" math="0" shadow="0">
            <root>
                <mxCell id="0"/>
                <mxCell id="1" parent="0"/>
                <mxCell id="11" value="" style="rounded=0;whiteSpace=wrap;html=1;" vertex="1" parent="1">
                    <mxGeometry x="150" y="250" width="130" height="600" as="geometry"/>
                </mxCell>
                <mxCell id="12" value="" style="rounded=0;whiteSpace=wrap;html=1;" vertex="1" parent="1">
                    <mxGeometry x="280" y="360" width="420" height="490" as="geometry"/>
                </mxCell>
                <mxCell id="13" value="Home" style="rounded=0;whiteSpace=wrap;html=1;" vertex="1" parent="1">
                    <mxGeometry x="162.5" y="380" width="105" height="60" as="geometry"/>
                </mxCell>
                <mxCell id="14" value="Alternate Tunings" style="rounded=0;whiteSpace=wrap;html=1;" vertex="1" parent="1">
                    <mxGeometry x="161.25" y="460" width="105" height="60" as="geometry"/>
                </mxCell>
                <mxCell id="15" value="Artists" style="rounded=0;whiteSpace=wrap;html=1;" vertex="1" parent="1">
                    <mxGeometry x="161.25" y="540" width="105" height="60" as="geometry"/>
                </mxCell>
                <mxCell id="16" value="Songs" style="rounded=0;whiteSpace=wrap;html=1;" vertex="1" parent="1">
                    <mxGeometry x="161.25" y="620" width="105" height="60" as="geometry"/>
                </mxCell>
                <mxCell id="17" value="Header" style="rounded=0;whiteSpace=wrap;html=1;" vertex="1" parent="1">
                    <mxGeometry x="280" y="250" width="420" height="110" as="geometry"/>
                </mxCell>
                <mxCell id="18" value="Footer" style="rounded=0;whiteSpace=wrap;html=1;" vertex="1" parent="1">
                    <mxGeometry x="150" y="800" width="130" height="50" as="geometry"/>
                </mxCell>
                <mxCell id="19" value="Contact" style="rounded=0;whiteSpace=wrap;html=1;" vertex="1" parent="1">
                    <mxGeometry x="161.25" y="700" width="105" height="60" as="geometry"/>
                </mxCell>
                <mxCell id="20" value="Interacttive Toggle Side&lt;br&gt;Navbar" style="text;html=1;align=center;verticalAlign=middle;resizable=0;points=[];autosize=1;strokeColor=none;fillColor=none;" vertex="1" parent="1">
                    <mxGeometry x="143.75" y="250" width="140" height="30" as="geometry"/>
                </mxCell>
                <mxCell id="23" value="Toggle" style="text;html=1;align=center;verticalAlign=middle;resizable=0;points=[];autosize=1;strokeColor=none;fillColor=none;" vertex="1" parent="1">
                    <mxGeometry x="280" y="280" width="50" height="20" as="geometry"/>
                </mxCell>
                <mxCell id="24" value="Log In" style="text;html=1;align=center;verticalAlign=middle;resizable=0;points=[];autosize=1;strokeColor=none;fillColor=none;" vertex="1" parent="1">
                    <mxGeometry x="640" y="260" width="50" height="20" as="geometry"/>
                </mxCell>
                <mxCell id="25" value="Songs View" style="text;html=1;align=center;verticalAlign=middle;resizable=0;points=[];autosize=1;strokeColor=none;fillColor=none;" vertex="1" parent="1">
                    <mxGeometry x="440" y="380" width="80" height="20" as="geometry"/>
                </mxCell>
                <mxCell id="26" value="Artist - Link to view all songs by this artist" style="text;html=1;align=center;verticalAlign=middle;resizable=0;points=[];autosize=1;strokeColor=none;fillColor=none;" vertex="1" parent="1">
                    <mxGeometry x="320" y="450" width="230" height="20" as="geometry"/>
                </mxCell>
                <mxCell id="41" value="" style="rounded=0;whiteSpace=wrap;html=1;" vertex="1" parent="1">
                    <mxGeometry x="290" y="260" width="20" height="20" as="geometry"/>
                </mxCell>
                <mxCell id="27" value="Song Title" style="text;html=1;align=center;verticalAlign=middle;resizable=0;points=[];autosize=1;strokeColor=none;fillColor=none;" vertex="1" parent="1">
                    <mxGeometry x="315" y="410" width="70" height="20" as="geometry"/>
                </mxCell>
                <mxCell id="28" value="Tuning Used - Link to view this tuning's details" style="text;html=1;align=center;verticalAlign=middle;resizable=0;points=[];autosize=1;strokeColor=none;fillColor=none;" vertex="1" parent="1">
                    <mxGeometry x="315" y="470" width="260" height="20" as="geometry"/>
                </mxCell>
                <mxCell id="29" value="Link to guitar tab/chord chart" style="text;html=1;align=center;verticalAlign=middle;resizable=0;points=[];autosize=1;strokeColor=none;fillColor=none;" vertex="1" parent="1">
                    <mxGeometry x="315" y="540" width="170" height="20" as="geometry"/>
                </mxCell>
                <mxCell id="30" value="Link to song video" style="text;html=1;align=center;verticalAlign=middle;resizable=0;points=[];autosize=1;strokeColor=none;fillColor=none;" vertex="1" parent="1">
                    <mxGeometry x="515" y="570" width="110" height="20" as="geometry"/>
                </mxCell>
                <mxCell id="31" value="Album" style="text;html=1;align=center;verticalAlign=middle;resizable=0;points=[];autosize=1;strokeColor=none;fillColor=none;" vertex="1" parent="1">
                    <mxGeometry x="315" y="430" width="50" height="20" as="geometry"/>
                </mxCell>
                <mxCell id="34" value="Embed for video&amp;nbsp; or thumbnail view?" style="rounded=0;whiteSpace=wrap;html=1;" vertex="1" parent="1">
                    <mxGeometry x="320" y="600" width="120" height="60" as="geometry"/>
                </mxCell>
                <mxCell id="40" style="edgeStyle=none;html=1;" edge="1" parent="1" source="38" target="34">
                    <mxGeometry relative="1" as="geometry"/>
                </mxCell>
                <mxCell id="38" value="Link to video tutorial" style="text;html=1;align=center;verticalAlign=middle;resizable=0;points=[];autosize=1;strokeColor=none;fillColor=none;" vertex="1" parent="1">
                    <mxGeometry x="320" y="570" width="120" height="20" as="geometry"/>
                </mxCell>
                <mxCell id="39" value="Embed for video&amp;nbsp; or thumbnail view?" style="rounded=0;whiteSpace=wrap;html=1;" vertex="1" parent="1">
                    <mxGeometry x="510" y="600" width="120" height="60" as="geometry"/>
                </mxCell>
                <mxCell id="22" value="" style="line;strokeWidth=4;html=1;perimeter=backbonePerimeter;points=[];outlineConnect=0;" vertex="1" parent="1">
                    <mxGeometry x="290" y="265" width="20" height="10" as="geometry"/>
                </mxCell>
                <mxCell id="42" value="Search Bar" style="rounded=1;whiteSpace=wrap;html=1;" vertex="1" parent="1">
                    <mxGeometry x="153.75" y="310" width="120" height="30" as="geometry"/>
                </mxCell>
            </root>
        </mxGraphModel>
    </diagram>
</mxfile>